<svg xmlns="http://www.w3.org/2000/svg" width="32" height="36" viewBox="0 0 32 36">
  <defs>
    <style>
      .cls-1 {
        fill: #498eff;
        fill-rule: evenodd;
      }
    </style>
  </defs>
  <path id="_9_拷贝" data-name="9 拷贝" class="cls-1" d="M32,30a3.976,3.976,0,0,1-.71,2.269L20.934,21.608,32,13.318V30ZM31.76,10.85L16,22.656,0.24,10.85,16,2ZM12.742,22.76L16,25l3.258-2.24L29.677,33.621A3.966,3.966,0,0,1,28,34H4a3.968,3.968,0,0,1-1.677-.379ZM0,30a3.976,3.976,0,0,0,.71,2.269L11.066,21.608,0,13V30Z"/>
</svg>
