<svg xmlns="http://www.w3.org/2000/svg" width="32" height="36" viewBox="0 0 32 36">
  <defs>
    <style>
      .cls-1 {
        fill: #498eff;
        fill-rule: evenodd;
      }
    </style>
  </defs>
  <path id="_4" data-name="4" class="cls-1" d="M28.2,3.562l2.878,2.87c1.589,1.585.825,3.477,0,5.74A67.823,67.823,0,0,1,22,24a61.43,61.43,0,0,1-11.792,8.981c-2.1,1.077-4.166,1.585-5.756,0l-2.878-2.87a1.89,1.89,0,0,1,0-2.87L7.33,22.935a2.172,2.172,0,0,1,2.878,0h0l1.7,1.7a57.657,57.657,0,0,0,6.212-5.285,49.578,49.578,0,0,0,4.639-5.419L21,12.173A2.157,2.157,0,0,1,21,9.3l4.317-5.74a2.039,2.039,0,0,1,2.878,0"/>
</svg>
